<?xml version="1.0" encoding="UTF-8"?>
<svg id="Layer_2" data-name="Layer 2" xmlns="http://www.w3.org/2000/svg" viewBox="0 0 436.94 476.6">
  <defs>
    <style>
      .cls-1 {
        fill: #ea426e;
      }

      .cls-1, .cls-2, .cls-3, .cls-4 {
        stroke-width: 0px;
      }

      .cls-2 {
        fill: #e4ea65;
      }

      .cls-3 {
        fill: #fff;
      }

      .cls-4 {
        fill: #64b2ed;
      }
    </style>
  </defs>
  <g id="Layer_1-2" data-name="Layer 1">
    <g>
      <path class="cls-3" d="m428.04,264.35h0c-3.6,30.19-22.89,86.91-55.19,119.64-37.78,38.3-90.16,50.67-107.65,53.72-39.24,6.84-76.91-2.2-111.49-21.79-36.89-20.9-87.42-76.06-99.48-139.06-20.62-107.66,42.12-167.26,77.11-192.84,4.88-3.57,9.95-6.93,15.07-9.99,46.43-27.76,112.37-44.8,149.18,3.73,13.95,18.38,18.88,37.89,15.03,58.03-10.91,57.11-48.45,67.38-126.48,121.24-11.66,8.04-42.73,25.95-52.63,59.95-8.43,28.92-.76,54.07,15.17,69.66,21.83,21.36,48.65,24.07,58.79,23.1,0,0-34.3-25.02-43.34-39.94-11.61-19.18-12.5-40.68,3.7-63.16,32.1-44.53,169.28-48.87,191.45-164.95,6.26-32.78-1.44-64.99-22.86-93.24C311.96,18.85,278.76,2.9,238.5.23c-37.93-2.52-84.21,16.17-114.87,34.51-46.46,27.78-86.1,70.68-106.46,120.93-23.55,58.12-22.85,119.77,2.02,178.29,24.64,57.95,77.01,108.72,136.39,129.44,17.45,6.09,54.06,14.44,88.98,13.05,10.71-.43,55.61-3.66,104.27-31.86,21.19-12.28,63.97-38.97,81.33-95.53,15.28-49.79.29-104.89-2.12-84.71Z"/>
      <g>
        <path class="cls-4" d="m98.79,286.96s-21.46-110.94,48.88-160.27c96.72-67.84,130.63,28.96,51.61,70.16-103.75,54.09-100.48,90.11-100.48,90.11Z"/>
        <path class="cls-2" d="m98.74,287.47s-12.77-87,32.46-125.21c62.19-52.53,83.01,23.48,32.32,55.26-66.56,41.72-64.77,69.95-64.77,69.95Z"/>
        <path class="cls-1" d="m98.83,287.94s-5.66-51.93,12.88-75.02c25.48-31.75,34.42,13.56,13.6,32.84-27.34,25.32-26.48,42.18-26.48,42.18Z"/>
      </g>
    </g>
  </g>
</svg>