<?xml version="1.0" encoding="UTF-8"?>
<svg id="Layer_2" data-name="Layer 2" xmlns="http://www.w3.org/2000/svg" viewBox="0 0 1015.481 1107.671">
  <defs>
    <style>
      .cls-1 {
        fill: #ea426e;
      }

      .cls-1, .cls-2, .cls-3, .cls-4 {
        stroke-width: 0px;
      }

      .cls-2 {
        fill: #e4ea65;
      }

      .cls-3 {
        fill: #14ebd9;
      }

      .cls-4 {
        fill: #fff;
      }
    </style>
  </defs>
  <g id="Layer_1-2" data-name="Layer 1">
    <g>
      <path class="cls-4" d="m994.804,614.365l.002-.002c-8.378,70.178-53.204,201.983-128.256,278.054-87.812,89.004-209.551,117.772-250.183,124.857-91.194,15.901-178.736-5.103-259.122-50.631-85.747-48.564-203.165-176.771-231.209-323.186-47.926-250.217,97.895-388.723,179.21-448.168,11.337-8.288,23.117-16.096,35.014-23.21,107.913-64.526,261.168-104.118,346.714,8.661,32.416,42.728,43.877,88.067,34.939,134.859-25.359,132.737-112.611,156.59-293.941,281.771-27.091,18.693-99.298,60.307-122.322,139.321-19.583,67.208-1.776,125.672,35.252,161.904,50.724,49.633,113.058,55.934,136.635,53.688,0,0-79.721-58.144-100.728-92.833-26.992-44.571-29.061-94.546,8.603-146.799,74.594-103.485,393.414-113.587,444.949-383.35,14.552-76.177-3.346-151.05-53.139-216.693C725.031,43.808,647.866,6.751,554.29.533c-88.147-5.86-195.703,37.585-266.969,80.195C179.342,145.29,87.206,245.005,39.89,361.777c-54.741,135.081-53.111,278.366,4.7,414.365,57.264,134.693,178.97,252.675,316.974,300.832,40.555,14.153,125.639,33.569,206.806,30.339,24.899-.991,129.232-8.513,242.331-74.045,49.242-28.532,148.68-90.574,189.027-222.03,35.514-115.71.67-243.773-4.924-196.874Z"/>
      <g>
        <path class="cls-3" d="m352.556,287.241c-149.473,104.838-129.942,336.531-123.894,374.23-4.002-35.58-17.546-205.115,76.258-284.347,140.511-118.683,190.14,44.948,84.553,122.005,21.538-13.28,45.938-27.17,73.663-41.623,183.657-95.739,114.204-327.927-110.581-170.265Z"/>
        <path class="cls-3" d="m229.582,665.474c-.031.365-.055.701-.07.991.052.281.088.47.088.47,0,0-.044-.496-.018-1.461Z"/>
      </g>
      <path class="cls-1" d="m229.72,669.166s-13.317-120.688,30.326-174.361c60.009-73.802,81.049,31.511,32.019,76.327-64.372,58.84-62.345,98.034-62.345,98.034Z"/>
      <path class="cls-2" d="m304.894,377.095c-105.118,88.788-75.431,290.993-75.431,290.993,0,0-.022-.374,0-1.092-1.534-16.486-9.653-122.757,30.541-172.189,59.527-73.209,80.695,29.821,33.174,75.225,21.156-19.338,49.308-41.002,86.825-64.516,117.824-73.847,69.431-250.508-75.108-128.422Z"/>
    </g>
  </g>
</svg>