<?xml version="1.0" encoding="UTF-8"?>
<svg id="Layer_2" data-name="Layer 2" xmlns="http://www.w3.org/2000/svg" xmlns:xlink="http://www.w3.org/1999/xlink" viewBox="0 0 1015.481 1107.671">
  <defs>
    <style>
      .cls-1 {
        fill: #fff;
      }

      .cls-1, .cls-2 {
        stroke-width: 0px;
      }

      .cls-2 {
        fill: url(#radial-gradient);
      }
    </style>
    <radialGradient id="radial-gradient" cx="530.073" cy="474.709" fx="530.073" fy="474.709" r="462.027" gradientTransform="translate(-326.469 125.899) scale(1.065 1.032)" gradientUnits="userSpaceOnUse">
      <stop offset="0" stop-color="#ea426e"/>
      <stop offset=".497" stop-color="#e4ea65"/>
      <stop offset="1" stop-color="#14ebd9"/>
    </radialGradient>
  </defs>
  <g id="Layer_1-2" data-name="Layer 1">
    <g>
      <path class="cls-1" d="m994.804,614.365l.002-.002c-8.378,70.178-53.204,201.983-128.256,278.054-87.812,89.004-209.551,117.772-250.183,124.857-91.194,15.901-178.736-5.103-259.122-50.631-85.747-48.564-203.165-176.771-231.209-323.186-47.926-250.217,97.895-388.723,179.21-448.168,11.337-8.288,23.117-16.096,35.014-23.21,107.913-64.526,261.168-104.118,346.714,8.661,32.416,42.728,43.877,88.067,34.939,134.859-25.359,132.737-112.611,156.59-293.941,281.771-27.091,18.693-99.298,60.307-122.322,139.321-19.583,67.208-1.776,125.672,35.252,161.904,50.724,49.633,113.058,55.934,136.635,53.688,0,0-79.721-58.144-100.728-92.833-26.992-44.571-29.061-94.546,8.603-146.799,74.594-103.485,393.414-113.587,444.949-383.35,14.552-76.177-3.346-151.05-53.139-216.693C725.031,43.808,647.866,6.751,554.29.533c-88.147-5.86-195.703,37.585-266.969,80.195C179.342,145.29,87.206,245.005,39.89,361.777c-54.741,135.081-53.111,278.366,4.7,414.365,57.264,134.693,178.97,252.675,316.974,300.832,40.555,14.153,125.639,33.569,206.806,30.339,24.899-.991,129.232-8.513,242.331-74.045,49.242-28.532,148.68-90.574,189.027-222.03,35.514-115.71.67-243.773-4.924-196.874Z"/>
      <path class="cls-2" d="m351.056,282.485c-158.52,107.722-128.691,337.845-122.073,378.22.544,4.744.938,7.348.938,7.348,0,0-.024-.386-.001-1.127-1.634-17.012-10.281-126.677,32.529-177.687,14.499-17.276,26.859-25.037,36.698-26.178-9.833,1.16-22.178,8.927-36.653,26.175-46.483,55.387-32.3,179.928-32.3,179.928,0,0-2.159-40.446,66.403-101.165.708-.627,1.399-1.267,2.08-1.916,22.432-19.758,52.14-41.843,91.581-65.793,64.707-39.293,82.346-106.795,63.148-145.696,18.176,36.793,3.379,99.197-53.06,139.104,22.94-13.704,48.928-28.037,78.457-42.952,195.611-98.796,111.668-330.958-127.748-168.262Zm78.538,67.678c-.13-.136-.261-.27-.393-.405.132.134.263.269.393.405Zm-1.292-1.296c-.108-.105-.217-.208-.326-.312.109.103.218.207.326.312Zm-1.335-1.242c-.083-.074-.167-.148-.25-.221.083.074.167.147.25.221Zm-1.38-1.189c-.052-.044-.105-.086-.158-.13.053.043.106.086.158.13Zm-1.421-1.132c-.019-.014-.038-.028-.056-.042.019.014.037.028.056.042Zm-127.094,123.99c-.118-.001-.237,0-.355.001.119,0,.238-.003.355-.001Zm.835.028c-.042-.002-.085-.004-.128-.006.043.002.086.003.128.006Zm-2.562.03c-.278.022-.557.049-.84.082.282-.033.562-.061.84-.082Zm.871-.048c-.195.007-.392.018-.589.03.197-.012.394-.024.589-.03Zm142.252-106.625c.281.544.555,1.093.821,1.649-.266-.556-.54-1.105-.821-1.649Zm-8.082-11.67c.153.167.305.335.456.505-.151-.169-.303-.337-.456-.505Zm1.151,1.3c.172.201.341.404.51.608-.169-.204-.338-.407-.51-.608Zm1.113,1.348c.189.237.375.477.56.717-.185-.241-.371-.48-.56-.717Zm1.074,1.395c.204.275.404.553.604.832-.199-.279-.4-.557-.604-.832Zm1.033,1.44c.219.317.434.637.647.96-.213-.322-.428-.643-.647-.96Zm.992,1.484c.234.363.462.73.688,1.099-.226-.37-.455-.737-.688-1.099Zm.949,1.526c.249.414.491.834.73,1.256-.239-.423-.481-.842-.73-1.256Zm.907,1.569c.264.474.522.954.774,1.439-.252-.484-.51-.964-.774-1.439Z"/>
    </g>
  </g>
</svg>